/vscmnt/brussel_pixiu_data/_data_brussel/112/vsc11236/PredSimResults/SUBJ11mtu3D/worker5.mot
version=1
nRows=5
nColumns=50
inDegrees=yes
endheader
                time	         pelvis_tilt	         pelvis_list	     pelvis_rotation	           pelvis_tx	           pelvis_ty	           pelvis_tz	       hip_flexion_r	     hip_adduction_r	      hip_rotation_r	        knee_angle_r	       ankle_angle_r	         mtp_angle_r	       hip_flexion_l	     hip_adduction_l	      hip_rotation_l	        knee_angle_l	       ankle_angle_l	         mtp_angle_l	    lumbar_extension	      lumbar_bending	     lumbar_rotation	 ercspn_r/activation	 intobl_r/activation	 extobl_r/activation	    abd_r/activation	    add_r/activation	hamstrings_r/activation	bifemsh_r/activation	glut_max_r/activation	iliopsoas_r/activation	rect_fem_r/activation	  vasti_r/activation	gastroc_r/activation	 soleus_r/activation	tib_ant_r/activation	 ercspn_l/activation	 intobl_l/activation	 extobl_l/activation	    abd_l/activation	    add_l/activation	hamstrings_l/activation	bifemsh_l/activation	glut_max_l/activation	iliopsoas_l/activation	rect_fem_l/activation	  vasti_l/activation	gastroc_l/activation	 soleus_l/activation	tib_ant_l/activation	
          1.95117965	         -4.49412968	          2.05628951	         -5.13152527	          2.14629761	          0.94443610	          0.01528169	        -11.86842392	         -2.95101020	          1.31615646	        -10.71211287	         13.05768125	         26.27814733	         31.93908938	         -1.23490343	         -2.08206565	         -9.40544607	          6.44927984	          0.21237315	         -9.09684724	         -1.60109670	          4.84020047	          0.02646567	          0.01000006	          0.01000011	          0.05847328	          0.01000022	          0.01423411	          0.18703752	          0.01000028	          0.20738617	          0.01419837	          0.01000010	          0.10719354	          0.28275599	          0.01480598	          0.10663617	          0.19032838	          0.02260859	          0.01000008	          0.19238967	          0.04854124	          0.06431843	          0.05402165	          0.04732428	          0.03352200	          0.01000021	          0.01000018	          0.01000002	          0.34770897	
          1.96418751	         -4.60685574	          2.08765090	         -5.27159482	          2.16404137	          0.94236481	          0.01365595	        -12.26538826	         -3.17269319	          1.05041680	        -11.69508959	         12.46517318	         28.13017091	         31.69344638	         -1.00831425	         -2.03884859	        -10.36981615	          5.94064341	          0.22589945	         -8.64668295	         -1.88467739	          5.44446036	          0.06425975	          0.01000011	          0.01000019	          0.04805507	          0.01000369	          0.01169966	          0.15371325	          0.01278901	          0.17043613	          0.01166957	          0.01000020	          0.08809485	          0.26869726	          0.01216800	          0.08763692	          0.15641752	          0.01858041	          0.01000004	          0.21632378	          0.03989286	          0.05285933	          0.10395507	          0.03889250	          0.02754952	          0.01663475	          0.01480488	          0.01587095	          0.35571123	
          1.97719538	         -4.69848339	          2.11963217	         -5.39030811	          2.18219641	          0.94050578	          0.01195470	        -12.58727929	         -3.40138529	          0.76609808	        -12.87011473	         11.71964062	         30.05556995	         31.35255594	         -0.80311495	         -1.95273887	        -11.46651642	          5.44537608	          0.20393597	         -8.15874287	         -2.16802372	          6.02607786	          0.05594671	          0.01000007	          0.01000031	          0.03949307	          0.01000049	          0.01001118	          0.12632630	          0.01051061	          0.14006947	          0.01000129	          0.01000021	          0.07239895	          0.24794242	          0.01000005	          0.07202349	          0.12854857	          0.01526994	          0.04095391	          0.18211567	          0.04520654	          0.04344208	          0.12219973	          0.03196301	          0.02264113	          0.03586148	          0.01216726	          0.01304324	          0.40769006	
          1.99020324	         -4.77352523	          2.14113313	         -5.47769758	          2.20043298	          0.93910275	          0.01016898	        -12.72100981	         -3.61969333	          0.45589997	        -14.38028859	         10.77926343	         32.06474419	         30.99770056	         -0.61218197	         -1.95120458	        -12.51390044	          4.72616951	          0.18510738	         -7.67364686	         -2.43711356	          6.57394303	          0.08318105	          0.01000009	          0.01000022	          0.03245657	          0.01000164	          0.02026113	          0.10381887	          0.01642871	          0.11511325	          0.01000070	          0.01000025	          0.05949960	          0.22359120	          0.01000003	          0.06385993	          0.10564503	          0.01254931	          0.07444448	          0.19863770	          0.05029218	          0.03570305	          0.11208562	          0.02626815	          0.01860727	          0.09398276	          0.01000022	          0.01071934	          0.45592418	
          2.00321111	         -4.83317134	          2.14932838	         -5.53502658	          2.21858354	          0.93831211	          0.00831427	        -12.59114691	         -3.82304190	          0.11177335	        -16.32538505	          9.62110609	         34.11428425	         30.63318524	         -0.43097321	         -2.00352635	        -13.55743895	          4.04156207	          0.14039332	         -7.20914269	         -2.68787960	          7.08727547	          0.08810919	          0.01000012	          0.01000022	          0.02667377	          0.07553834	          0.04036167	          0.08532161	          0.01350251	          0.09460349	          0.01000034	          0.01000017	          0.04889852	          0.18375395	          0.01000003	          0.05248216	          0.08682222	          0.01031342	          0.09127379	          0.22969341	          0.05584816	          0.02934305	          0.10131962	          0.02158795	          0.01529212	          0.14766867	          0.01000044	          0.01000014	          0.49563489	
